{
  "accessors": [
    {
      "name": "10436_Cactus_v1_1_0_positions",
      "componentType": 5126,
      "count": 9718,
      "min": [
        -25.602500915527344,
        -25.663799285888672,
        0
      ],
      "max": [
        25.662399291992188,
        31.39259910583496,
        249.7252960205078
      ],
      "type": "VEC3",
      "bufferView": 0,
      "byteOffset": 0
    },
    {
      "name": "10436_Cactus_v1_1_0_normals",
      "componentType": 5126,
      "count": 9718,
      "min": [
        -0.9999949336051941,
        -0.9999997615814209,
        -1
      ],
      "max": [
        0.9999995827674866,
        0.9999815225601196,
        1
      ],
      "type": "VEC3",
      "bufferView": 1,
      "byteOffset": 0
    },
    {
      "name": "10436_Cactus_v1_1_0_texcoords",
      "componentType": 5126,
      "count": 9718,
      "min": [
        0.003100000089034438,
        0.006500000134110451
      ],
      "max": [
        0.9966999888420105,
        0.9258000254631042
      ],
      "type": "VEC2",
      "bufferView": 2,
      "byteOffset": 0
    },
    {
      "name": "10436_Cactus_v1_1_0_indices",
      "componentType": 5123,
      "count": 55008,
      "min": [
        0
      ],
      "max": [
        9717
      ],
      "type": "SCALAR",
      "bufferView": 3,
      "byteOffset": 0
    }
  ],
  "asset": {
    "generator": "obj2gltf",
    "version": "2.0"
  },
  "buffers": [
    {
      "name": "10436_Cactus_v1_max2010_it2",
      "byteLength": 1287316,
      "uri": "data:application/octet-stream;base64,"
    }
  ],
  "bufferViews": [
    {
      "name": "bufferView_0",
      "buffer": 0,
      "byteLength": 116616,
      "byteOffset": 0,
      "byteStride": 12,
      "target": 34962
    },
    {
      "name": "bufferView_1",
      "buffer": 0,
      "byteLength": 116616,
      "byteOffset": 116616,
      "byteStride": 12,
      "target": 34962
    },
    {
      "name": "bufferView_2",
      "buffer": 0,
      "byteLength": 77744,
      "byteOffset": 233232,
      "byteStride": 8,
      "target": 34962
    },
    {
      "name": "bufferView_3",
      "buffer": 0,
      "byteLength": 110016,
      "byteOffset": 310976,
      "target": 34963
    },
    {
      "buffer": 0,
      "byteOffset": 420992,
      "byteLength": 866322
    }
  ],
  "images": [
    {
      "name": "10436_Cactus_v1_Diffuse",
      "mimeType": "image/jpeg",
      "bufferView": 4
    }
  ],
  "materials": [
    {
      "name": "10436_Cactus_v1",
      "pbrMetallicRoughness": {
        "baseColorTexture": {
          "index": 0
        },
        "baseColorFactor": [
          1,
          1,
          1,
          1
        ],
        "metallicFactor": 0,
        "roughnessFactor": 0.9009
      },
      "emissiveFactor": [
        0,
        0,
        0
      ],
      "alphaMode": "OPAQUE",
      "doubleSided": false
    }
  ],
  "meshes": [
    {
      "name": "10436_Cactus_v1_1",
      "primitives": [
        {
          "attributes": {
            "POSITION": 0,
            "NORMAL": 1,
            "TEXCOORD_0": 2
          },
          "indices": 3,
          "material": 0,
          "mode": 4
        }
      ]
    }
  ],
  "nodes": [
    {
      "name": "10436_Cactus_v1",
      "mesh": 0
    }
  ],
  "samplers": [
    {
      "wrapS": 10497,
      "wrapT": 10497
    }
  ],
  "scene": 0,
  "scenes": [
    {
      "nodes": [
        0
      ]
    }
  ],
  "textures": [
    {
      "name": "10436_Cactus_v1_Diffuse",
      "sampler": 0,
      "source": 0
    }
  ]
}
